<svg id="visual" viewBox="0 0 1920 1080" width="1920" height="1080" xmlns="http://www.w3.org/2000/svg" xmlns:xlink="http://www.w3.org/1999/xlink" version="1.1"><rect x="0" y="0" width="1920" height="1080" fill="#000000"></rect><path d="M0 445L45.7 466.5C91.3 488 182.7 531 274.2 549C365.7 567 457.3 560 548.8 533.3C640.3 506.7 731.7 460.3 823 429.5C914.3 398.7 1005.7 383.3 1097 381.2C1188.3 379 1279.7 390 1371.2 381.5C1462.7 373 1554.3 345 1645.8 342.2C1737.3 339.3 1828.7 361.7 1874.3 372.8L1920 384L1920 0L1874.3 0C1828.7 0 1737.3 0 1645.8 0C1554.3 0 1462.7 0 1371.2 0C1279.7 0 1188.3 0 1097 0C1005.7 0 914.3 0 823 0C731.7 0 640.3 0 548.8 0C457.3 0 365.7 0 274.2 0C182.7 0 91.3 0 45.7 0L0 0Z" fill="#656565"></path><path d="M0 466L45.7 468.3C91.3 470.7 182.7 475.3 274.2 456.5C365.7 437.7 457.3 395.3 548.8 386.8C640.3 378.3 731.7 403.7 823 412.5C914.3 421.3 1005.7 413.7 1097 429C1188.3 444.3 1279.7 482.7 1371.2 475.7C1462.7 468.7 1554.3 416.3 1645.8 406.3C1737.3 396.3 1828.7 428.7 1874.3 444.8L1920 461L1920 0L1874.3 0C1828.7 0 1737.3 0 1645.8 0C1554.3 0 1462.7 0 1371.2 0C1279.7 0 1188.3 0 1097 0C1005.7 0 914.3 0 823 0C731.7 0 640.3 0 548.8 0C457.3 0 365.7 0 274.2 0C182.7 0 91.3 0 45.7 0L0 0Z" fill="#797979"></path><path d="M0 311L45.7 310.8C91.3 310.7 182.7 310.3 274.2 330.5C365.7 350.7 457.3 391.3 548.8 407.7C640.3 424 731.7 416 823 409.7C914.3 403.3 1005.7 398.7 1097 389.2C1188.3 379.7 1279.7 365.3 1371.2 350C1462.7 334.7 1554.3 318.3 1645.8 302.5C1737.3 286.7 1828.7 271.3 1874.3 263.7L1920 256L1920 0L1874.3 0C1828.7 0 1737.3 0 1645.8 0C1554.3 0 1462.7 0 1371.2 0C1279.7 0 1188.3 0 1097 0C1005.7 0 914.3 0 823 0C731.7 0 640.3 0 548.8 0C457.3 0 365.7 0 274.2 0C182.7 0 91.3 0 45.7 0L0 0Z" fill="#8e8e8e"></path><path d="M0 362L45.7 359.7C91.3 357.3 182.7 352.7 274.2 337.3C365.7 322 457.3 296 548.8 292.2C640.3 288.3 731.7 306.7 823 297.3C914.3 288 1005.7 251 1097 246.5C1188.3 242 1279.7 270 1371.2 270.3C1462.7 270.7 1554.3 243.3 1645.8 252.8C1737.3 262.3 1828.7 308.7 1874.3 331.8L1920 355L1920 0L1874.3 0C1828.7 0 1737.3 0 1645.8 0C1554.3 0 1462.7 0 1371.2 0C1279.7 0 1188.3 0 1097 0C1005.7 0 914.3 0 823 0C731.7 0 640.3 0 548.8 0C457.3 0 365.7 0 274.2 0C182.7 0 91.3 0 45.7 0L0 0Z" fill="#a4a4a4"></path><path d="M0 248L45.7 235.5C91.3 223 182.7 198 274.2 196.2C365.7 194.3 457.3 215.7 548.8 211.5C640.3 207.3 731.7 177.7 823 163.3C914.3 149 1005.7 150 1097 158.8C1188.3 167.7 1279.7 184.3 1371.2 189.3C1462.7 194.3 1554.3 187.7 1645.8 196.3C1737.3 205 1828.7 229 1874.3 241L1920 253L1920 0L1874.3 0C1828.7 0 1737.3 0 1645.8 0C1554.3 0 1462.7 0 1371.2 0C1279.7 0 1188.3 0 1097 0C1005.7 0 914.3 0 823 0C731.7 0 640.3 0 548.8 0C457.3 0 365.7 0 274.2 0C182.7 0 91.3 0 45.7 0L0 0Z" fill="#bababa"></path><path d="M0 189L45.7 177C91.3 165 182.7 141 274.2 138.8C365.7 136.7 457.3 156.3 548.8 163.2C640.3 170 731.7 164 823 165.5C914.3 167 1005.7 176 1097 177.5C1188.3 179 1279.7 173 1371.2 177C1462.7 181 1554.3 195 1645.8 204.3C1737.3 213.7 1828.7 218.3 1874.3 220.7L1920 223L1920 0L1874.3 0C1828.7 0 1737.3 0 1645.8 0C1554.3 0 1462.7 0 1371.2 0C1279.7 0 1188.3 0 1097 0C1005.7 0 914.3 0 823 0C731.7 0 640.3 0 548.8 0C457.3 0 365.7 0 274.2 0C182.7 0 91.3 0 45.7 0L0 0Z" fill="#d1d1d1"></path><path d="M0 66L45.7 72.3C91.3 78.7 182.7 91.3 274.2 108.3C365.7 125.3 457.3 146.7 548.8 145.7C640.3 144.7 731.7 121.3 823 103.7C914.3 86 1005.7 74 1097 76C1188.3 78 1279.7 94 1371.2 100.2C1462.7 106.3 1554.3 102.7 1645.8 105.5C1737.3 108.3 1828.7 117.7 1874.3 122.3L1920 127L1920 0L1874.3 0C1828.7 0 1737.3 0 1645.8 0C1554.3 0 1462.7 0 1371.2 0C1279.7 0 1188.3 0 1097 0C1005.7 0 914.3 0 823 0C731.7 0 640.3 0 548.8 0C457.3 0 365.7 0 274.2 0C182.7 0 91.3 0 45.7 0L0 0Z" fill="#e8e8e8"></path><path d="M0 105L45.7 105C91.3 105 182.7 105 274.2 106.8C365.7 108.7 457.3 112.3 548.8 110.3C640.3 108.3 731.7 100.7 823 90.3C914.3 80 1005.7 67 1097 71C1188.3 75 1279.7 96 1371.2 95.2C1462.7 94.3 1554.3 71.7 1645.8 69.7C1737.3 67.7 1828.7 86.3 1874.3 95.7L1920 105L1920 0L1874.3 0C1828.7 0 1737.3 0 1645.8 0C1554.3 0 1462.7 0 1371.2 0C1279.7 0 1188.3 0 1097 0C1005.7 0 914.3 0 823 0C731.7 0 640.3 0 548.8 0C457.3 0 365.7 0 274.2 0C182.7 0 91.3 0 45.7 0L0 0Z" fill="#ffffff"></path></svg>