<svg id="visual" viewBox="0 0 1920 1080" width="1920" height="1080" xmlns="http://www.w3.org/2000/svg" xmlns:xlink="http://www.w3.org/1999/xlink" version="1.1"><rect x="0" y="0" width="1920" height="1080" fill="#ffffff"></rect><path d="M0 427L45.7 446.2C91.3 465.3 182.7 503.7 274.2 490.2C365.7 476.7 457.3 411.3 548.8 396.2C640.3 381 731.7 416 823 439.5C914.3 463 1005.7 475 1097 452.7C1188.3 430.3 1279.7 373.7 1371.2 355.3C1462.7 337 1554.3 357 1645.8 357.3C1737.3 357.7 1828.7 338.3 1874.3 328.7L1920 319L1920 0L1874.3 0C1828.7 0 1737.3 0 1645.8 0C1554.3 0 1462.7 0 1371.2 0C1279.7 0 1188.3 0 1097 0C1005.7 0 914.3 0 823 0C731.7 0 640.3 0 548.8 0C457.3 0 365.7 0 274.2 0C182.7 0 91.3 0 45.7 0L0 0Z" fill="#656565"></path><path d="M0 317L45.7 305.7C91.3 294.3 182.7 271.7 274.2 277.7C365.7 283.7 457.3 318.3 548.8 351.8C640.3 385.3 731.7 417.7 823 402.2C914.3 386.7 1005.7 323.3 1097 299.7C1188.3 276 1279.7 292 1371.2 315.2C1462.7 338.3 1554.3 368.7 1645.8 376.5C1737.3 384.3 1828.7 369.7 1874.3 362.3L1920 355L1920 0L1874.3 0C1828.7 0 1737.3 0 1645.8 0C1554.3 0 1462.7 0 1371.2 0C1279.7 0 1188.3 0 1097 0C1005.7 0 914.3 0 823 0C731.7 0 640.3 0 548.8 0C457.3 0 365.7 0 274.2 0C182.7 0 91.3 0 45.7 0L0 0Z" fill="#505050"></path><path d="M0 249L45.7 254.8C91.3 260.7 182.7 272.3 274.2 272.2C365.7 272 457.3 260 548.8 262.3C640.3 264.7 731.7 281.3 823 294.3C914.3 307.3 1005.7 316.7 1097 307.7C1188.3 298.7 1279.7 271.3 1371.2 272C1462.7 272.7 1554.3 301.3 1645.8 298.5C1737.3 295.7 1828.7 261.3 1874.3 244.2L1920 227L1920 0L1874.3 0C1828.7 0 1737.3 0 1645.8 0C1554.3 0 1462.7 0 1371.2 0C1279.7 0 1188.3 0 1097 0C1005.7 0 914.3 0 823 0C731.7 0 640.3 0 548.8 0C457.3 0 365.7 0 274.2 0C182.7 0 91.3 0 45.7 0L0 0Z" fill="#3d3d3d"></path><path d="M0 221L45.7 231.7C91.3 242.3 182.7 263.7 274.2 260.8C365.7 258 457.3 231 548.8 228.8C640.3 226.7 731.7 249.3 823 243.7C914.3 238 1005.7 204 1097 201.8C1188.3 199.7 1279.7 229.3 1371.2 246.2C1462.7 263 1554.3 267 1645.8 252.2C1737.3 237.3 1828.7 203.7 1874.3 186.8L1920 170L1920 0L1874.3 0C1828.7 0 1737.3 0 1645.8 0C1554.3 0 1462.7 0 1371.2 0C1279.7 0 1188.3 0 1097 0C1005.7 0 914.3 0 823 0C731.7 0 640.3 0 548.8 0C457.3 0 365.7 0 274.2 0C182.7 0 91.3 0 45.7 0L0 0Z" fill="#2a2a2a"></path><path d="M0 162L45.7 159.5C91.3 157 182.7 152 274.2 151C365.7 150 457.3 153 548.8 162.3C640.3 171.7 731.7 187.3 823 180C914.3 172.7 1005.7 142.3 1097 130.2C1188.3 118 1279.7 124 1371.2 128.2C1462.7 132.3 1554.3 134.7 1645.8 144C1737.3 153.3 1828.7 169.7 1874.3 177.8L1920 186L1920 0L1874.3 0C1828.7 0 1737.3 0 1645.8 0C1554.3 0 1462.7 0 1371.2 0C1279.7 0 1188.3 0 1097 0C1005.7 0 914.3 0 823 0C731.7 0 640.3 0 548.8 0C457.3 0 365.7 0 274.2 0C182.7 0 91.3 0 45.7 0L0 0Z" fill="#181818"></path><path d="M0 83L45.7 90C91.3 97 182.7 111 274.2 104.8C365.7 98.7 457.3 72.3 548.8 63.7C640.3 55 731.7 64 823 78.5C914.3 93 1005.7 113 1097 121.3C1188.3 129.7 1279.7 126.3 1371.2 111.3C1462.7 96.3 1554.3 69.7 1645.8 64.3C1737.3 59 1828.7 75 1874.3 83L1920 91L1920 0L1874.3 0C1828.7 0 1737.3 0 1645.8 0C1554.3 0 1462.7 0 1371.2 0C1279.7 0 1188.3 0 1097 0C1005.7 0 914.3 0 823 0C731.7 0 640.3 0 548.8 0C457.3 0 365.7 0 274.2 0C182.7 0 91.3 0 45.7 0L0 0Z" fill="#000000"></path></svg>